<?xml version="1.0" standalone="no"?>
<!DOCTYPE svg PUBLIC "-//W3C//DTD SVG 20010904//EN"
 "http://www.w3.org/TR/2001/REC-SVG-20010904/DTD/svg10.dtd">
<svg version="1.0" xmlns="http://www.w3.org/2000/svg"
 width="370.000000pt" height="729.000000pt" viewBox="0 0 370.000000 729.000000"
 preserveAspectRatio="xMidYMid meet">

<g transform="translate(0.000000,729.000000) scale(0.100000,-0.100000)"
fill="#000000" stroke="none">
<path d="M3602 7273 c-5 -10 -12 -31 -16 -47 -4 -17 -16 -41 -26 -55 -10 -14
-24 -42 -33 -61 -15 -36 -22 -44 -129 -142 -35 -32 -95 -87 -134 -123 -82 -75
-155 -190 -224 -350 -22 -53 -66 -118 -54 -80 4 11 12 27 18 35 11 14 36 63
43 85 2 6 -4 -1 -14 -15 -32 -45 -125 -154 -184 -216 -57 -60 -139 -177 -139
-198 0 -32 -80 -170 -152 -264 -48 -62 -77 -107 -70 -110 22 -7 12 -19 -15
-20 -50 -1 -92 -14 -98 -30 -3 -8 -2 -18 3 -21 5 -3 12 -24 16 -46 4 -22 10
-51 13 -65 3 -15 -5 -7 -21 23 -15 26 -24 52 -20 58 4 7 -1 10 -12 7 -14 -2
-20 -13 -22 -41 -4 -41 -9 -45 -28 -19 -11 14 -15 15 -23 3 -5 -8 -22 -20 -38
-27 l-28 -12 25 -1 c14 -1 32 -6 40 -12 13 -9 13 -10 0 -8 -8 1 -32 1 -53 0
-35 -1 -37 -3 -31 -26 6 -24 4 -25 -19 -20 -14 4 -28 2 -31 -4 -4 -6 0 -11 8
-11 8 0 17 -4 20 -9 3 -4 -5 -6 -17 -4 -12 2 -33 0 -47 -6 -23 -9 -21 -10 16
-10 24 -1 47 -7 54 -16 10 -12 9 -15 -6 -15 -15 -1 -8 -11 26 -43 50 -46 63
-72 80 -164 6 -34 18 -86 27 -115 13 -44 17 -49 24 -33 4 11 9 49 10 85 3 57
4 52 8 -35 l6 -100 23 73 c25 78 41 223 42 364 0 48 4 89 8 92 4 2 6 -64 4
-147 l-4 -152 37 40 c25 27 32 31 22 14 -9 -15 -27 -65 -40 -111 -14 -47 -32
-100 -42 -119 l-16 -34 35 40 c20 22 54 76 77 120 34 67 40 86 35 118 -7 42
18 109 37 102 7 -3 23 5 36 16 20 16 22 22 11 29 -12 7 -12 11 1 27 20 23 94
155 94 168 0 5 13 23 28 40 15 16 49 64 74 105 25 41 70 101 100 135 62 68
113 138 113 155 0 7 8 24 19 38 40 57 121 232 151 327 48 147 48 148 95 220
26 39 39 68 33 71 -11 7 58 54 77 54 6 -1 -7 -10 -28 -21 -47 -25 -44 -31 8
-19 22 4 58 11 79 15 29 5 36 9 25 16 -10 6 -5 9 19 9 17 0 32 5 32 10 0 7 6
7 20 0 17 -9 20 -8 21 12 l0 23 9 -22 c11 -27 25 -30 34 -7 9 24 -11 53 -42
60 -51 11 -52 12 -52 58 0 25 4 47 9 51 5 3 13 19 16 36 8 34 10 37 91 126 51
57 61 84 31 83 -24 -1 -53 -36 -76 -93 -13 -32 -25 -56 -27 -54 -2 2 10 38 26
81 30 78 38 130 21 141 -6 3 -14 -2 -19 -12z m-402 -525 c0 -7 -12 -26 -26
-43 l-25 -30 22 43 c24 44 29 50 29 30z m90 -73 c-44 -45 -61 -53 -40 -18 11
16 67 61 80 62 2 1 -16 -19 -40 -44z m-570 -670 c0 -2 -15 -12 -32 -20 l-33
-16 25 20 c24 20 40 26 40 16z m55 -5 c-3 -5 -14 -10 -23 -10 -15 0 -15 2 -2
10 20 13 33 13 25 0z m-336 -355 c0 -5 -6 -1 -14 9 -8 11 -15 24 -15 30 0 5 7
1 15 -10 8 -10 14 -23 14 -29z m-119 -113 c0 -13 -3 -12 -15 4 -19 25 -19 40
0 24 8 -7 15 -20 15 -28z m189 -2 c5 -17 6 -28 1 -25 -5 3 -14 -12 -20 -34 -6
-22 -16 -43 -22 -47 -8 -5 -9 -1 -5 11 17 42 29 106 23 120 -3 9 -2 14 3 11 5
-3 14 -20 20 -36z m25 -66 c3 -8 2 -12 -4 -9 -6 3 -10 10 -10 16 0 14 7 11 14
-7z m20 -40 c3 -8 2 -12 -4 -9 -6 3 -10 10 -10 16 0 14 7 11 14 -7z"/>
<path d="M1434 6073 c-3 -13 -9 -21 -13 -18 -10 6 -102 7 -126 1 -11 -2 -31
-5 -45 -6 l-25 -2 25 -8 c22 -7 20 -8 -15 -9 -63 0 -75 -3 -75 -19 0 -15 -47
-61 -65 -63 -5 -1 -20 0 -31 0 -29 3 -38 -26 -18 -57 13 -20 14 -26 3 -33 -19
-12 -29 -11 -29 1 0 6 8 10 18 10 14 0 15 2 2 10 -14 9 -34 -9 -28 -27 1 -5
-11 -11 -28 -14 l-29 -6 33 -8 c26 -6 30 -10 21 -21 -6 -8 -15 -12 -19 -9 -5
3 -11 1 -15 -5 -3 -5 -1 -10 6 -10 8 0 9 -3 0 -14 -9 -10 -8 -16 4 -26 11 -9
12 -16 5 -25 -5 -6 -8 -14 -5 -17 3 -3 -4 -13 -15 -23 -27 -24 -25 -35 6 -35
20 0 24 -4 19 -19 -9 -30 14 -35 25 -6 7 19 15 25 26 21 9 -3 18 -6 20 -6 2 0
4 -16 4 -36 0 -21 4 -33 10 -29 6 3 14 -4 19 -17 15 -35 12 -8 -2 35 -8 21
-19 43 -25 49 -21 21 -13 26 23 16 19 -6 32 -15 29 -20 -3 -4 -10 -5 -16 -2
-12 8 -12 8 22 -69 14 -31 31 -57 38 -57 7 0 29 -11 50 -24 32 -20 39 -32 55
-92 11 -38 21 -76 24 -84 3 -8 2 -11 -3 -7 -5 5 -14 25 -20 45 -7 20 -12 29
-13 19 -2 -27 27 -89 39 -82 5 3 7 0 4 -8 -5 -15 18 -40 33 -35 13 4 75 -60
65 -66 -5 -3 -22 8 -37 24 -34 35 -45 38 -45 10 0 -11 -5 -19 -12 -17 -6 1
-13 -6 -16 -15 -5 -26 33 -40 111 -41 71 0 71 0 27 -10 -25 -5 -92 -23 -150
-39 -58 -17 -115 -30 -128 -30 -22 0 -62 -40 -62 -61 0 -6 -16 -34 -36 -63
-28 -40 -34 -56 -26 -69 8 -15 15 -9 47 39 20 31 41 58 45 61 14 9 22 -34 14
-78 -6 -39 -7 -40 -16 -18 l-9 25 -17 -35 c-12 -24 -23 -34 -39 -33 -13 0 -23
-3 -23 -8 0 -4 4 -8 10 -8 5 0 0 -15 -11 -34 -11 -20 -24 -66 -29 -112 -8 -71
-9 -65 -5 56 4 162 -6 147 -35 -52 -28 -187 -36 -222 -67 -283 -14 -27 -27
-65 -28 -83 -4 -35 -11 -49 -21 -40 -3 4 0 16 6 28 l12 22 -26 -18 c-14 -11
-24 -24 -21 -31 2 -6 -25 -46 -60 -89 -36 -42 -84 -116 -109 -163 -48 -95 -98
-226 -89 -235 3 -3 -5 -23 -19 -43 -13 -21 -49 -87 -79 -148 -43 -87 -67 -123
-117 -172 -35 -34 -69 -61 -75 -60 -6 1 -11 -3 -12 -10 0 -6 -10 -21 -23 -33
-32 -30 -27 -33 18 -10 22 11 40 27 40 34 0 7 7 19 16 27 13 11 13 7 -2 -24
-10 -21 -29 -41 -46 -48 -15 -6 -28 -17 -28 -25 0 -16 -36 -37 -53 -31 -7 2 1
11 17 19 20 10 25 17 17 23 -15 9 -63 -34 -54 -48 3 -6 1 -7 -5 -3 -7 4 -12 3
-12 -2 0 -5 -24 -28 -54 -50 -46 -35 -54 -47 -60 -84 -20 -114 -20 -110 0
-106 13 2 21 15 24 38 12 68 27 75 22 11 -4 -51 -2 -62 13 -67 20 -8 38 14 28
36 -12 29 -15 102 -4 113 8 8 11 -2 11 -36 0 -26 4 -47 9 -47 19 0 22 21 9 56
-11 32 -11 37 6 50 17 12 21 11 31 -3 8 -11 14 -13 19 -5 4 7 4 17 1 22 -4 6
7 10 25 10 l32 0 -37 -42 c-38 -45 -51 -78 -41 -103 10 -28 35 -15 80 44 26
33 59 70 75 83 31 24 101 122 101 141 0 6 -7 2 -15 -9 -9 -10 -6 0 5 23 12 23
28 44 37 47 9 4 13 13 9 22 -3 8 -2 13 3 9 5 -3 20 9 33 27 12 18 81 96 152
173 129 141 220 261 231 308 4 14 18 36 32 49 15 12 23 16 19 8 -4 -8 0 -6 9
5 9 11 18 31 21 45 16 71 48 140 64 140 13 0 16 7 12 33 -3 17 -10 35 -17 39
-7 5 -11 16 -8 27 2 10 -2 42 -11 72 -13 46 -13 51 -1 35 8 -11 15 -24 15 -29
0 -4 5 -5 10 -2 6 3 11 43 12 88 0 45 3 67 5 48 l4 -33 25 23 25 24 -10 -28
c-17 -43 -26 -213 -12 -221 7 -5 11 4 12 26 0 27 2 29 8 13 7 -16 11 -10 25
34 9 30 16 61 16 68 0 15 17 18 22 3 2 -6 8 -6 18 0 13 8 12 10 -2 10 -10 0
-18 4 -18 8 0 12 29 49 30 38 0 -5 16 13 35 40 25 35 35 43 35 29 0 -11 10
-25 22 -30 13 -6 25 -19 27 -29 3 -19 2 -19 -23 -3 -24 16 -26 16 -26 1 0 -9
12 -38 26 -65 23 -41 29 -47 45 -38 12 6 19 21 19 37 0 29 16 52 36 52 6 0 26
-28 44 -62 18 -35 33 -64 34 -64 1 -1 11 -5 24 -8 30 -10 29 11 -3 58 l-25 36
28 -14 c15 -8 36 -28 47 -44 16 -26 21 -28 30 -15 8 11 17 12 35 4 14 -5 39
-13 55 -16 l30 -7 -22 -18 c-13 -10 -23 -29 -23 -43 0 -27 -29 -45 -41 -25 -9
14 -11 13 -26 -23 -8 -18 -45 -43 -141 -92 -71 -37 -137 -67 -145 -67 -9 0
-23 -9 -31 -21 -8 -12 -19 -18 -24 -15 -13 8 -20 -11 -28 -75 -5 -38 -4 -50 5
-45 6 4 11 16 11 26 0 10 5 22 11 25 6 4 14 17 19 29 7 17 9 18 9 3 1 -10 6
-15 11 -12 6 3 10 2 10 -4 0 -5 -6 -14 -14 -18 -16 -10 -40 -53 -29 -53 4 0 0
-5 -9 -11 -10 -5 -18 -15 -18 -21 0 -6 7 -5 17 3 15 12 16 12 10 -5 -7 -17 -3
-18 49 -13 41 4 64 13 83 30 15 14 35 23 46 21 64 -12 115 -15 127 -7 20 12
115 11 115 -2 0 -13 -56 -14 -77 -1 -8 5 -11 5 -7 1 4 -5 -2 -14 -13 -20 -16
-8 16 -11 132 -10 84 1 161 5 171 9 9 5 24 6 32 3 8 -4 17 -2 20 2 10 17 55
19 65 2 8 -14 9 -13 10 6 0 20 5 21 79 22 66 0 81 -3 97 -20 18 -20 18 -20
-11 -15 -28 5 -29 4 -11 -9 11 -8 32 -15 46 -15 24 0 27 4 26 33 -1 34 -65
158 -85 165 -6 2 -11 -6 -11 -17 0 -15 -5 -19 -16 -14 -14 5 -15 1 -9 -25 8
-39 -2 -42 -16 -6 -11 30 -5 57 17 79 9 8 18 27 20 42 3 16 9 32 15 37 5 6 9
19 9 30 0 17 2 18 10 6 5 -8 10 -30 10 -49 0 -23 4 -32 13 -28 9 3 22 -19 40
-68 33 -89 52 -101 60 -41 5 33 0 60 -21 113 -17 44 -32 68 -39 66 -7 -3 -13
-13 -13 -23 0 -10 -5 -22 -11 -26 -8 -5 -9 14 -4 67 4 41 9 76 11 78 2 2 10
-2 19 -9 9 -7 19 -10 22 -6 12 12 -29 76 -71 112 -29 25 -34 32 -18 29 12 -2
49 -27 82 -54 86 -72 100 -70 48 7 l-31 47 32 -30 c41 -37 60 -74 76 -143 9
-37 10 -64 3 -86 -5 -17 -11 -51 -14 -74 -5 -38 -3 -43 12 -40 15 3 21 21 32
96 23 151 3 212 -100 312 -30 30 -47 34 -388 81 -124 17 -227 33 -229 35 -7 6
14 5 137 -10 64 -8 169 -20 232 -27 63 -6 134 -18 158 -24 23 -7 42 -10 42 -5
0 7 -46 41 -95 69 -17 11 -15 12 18 7 21 -3 53 -18 74 -35 21 -17 43 -31 49
-31 18 0 94 -124 109 -177 15 -56 20 -21 5 42 -10 46 -94 225 -85 183 7 -37
-8 -35 -42 3 -55 61 -67 64 -303 64 -118 0 -255 -5 -305 -12 -135 -18 -204
-23 -177 -13 12 5 59 12 105 15 45 2 119 14 165 25 45 11 86 19 90 19 24 -4
23 4 -3 21 l-30 20 50 1 c28 1 54 1 58 0 4 -1 20 -2 35 -3 15 -1 32 -5 37 -9
16 -11 96 -22 94 -12 -4 21 3 21 24 1 l22 -23 3 22 c3 19 6 21 23 13 15 -9 19
-7 20 7 0 16 1 15 9 -2 4 -11 23 -33 41 -50 18 -16 27 -22 20 -13 -7 10 -11
24 -8 31 8 22 -20 77 -37 71 -17 -7 -27 33 -31 120 -2 44 -8 63 -21 73 -20 15
-16 22 16 28 27 5 36 12 26 22 -3 4 -37 0 -74 -9 -66 -16 -67 -16 -43 3 20 16
55 25 84 20 4 -1 17 4 29 10 20 11 20 12 3 22 -14 7 -20 7 -23 -2 -3 -9 -7 -9
-17 -1 -29 24 -103 2 -257 -75 -84 -42 -142 -67 -128 -55 20 16 21 19 5 13
-17 -6 -18 -5 -7 10 8 8 20 13 27 10 8 -2 63 21 122 53 197 105 211 113 218
134 5 13 4 13 -10 0 -10 -11 -27 -15 -51 -12 -34 4 -34 5 -18 23 10 11 12 19
6 19 -14 0 -15 19 -3 39 8 12 12 12 25 2 9 -7 13 -17 10 -22 -9 -15 11 -10 32
7 17 14 17 15 1 10 -15 -5 -17 -2 -12 15 5 14 3 19 -3 15 -6 -3 -13 -2 -17 4
-3 5 1 10 9 10 9 0 16 7 16 16 0 9 -5 13 -12 8 -7 -3 1 6 17 20 21 19 24 24 9
17 -17 -8 -25 -7 -34 4 -10 12 -3 14 48 12 47 -2 58 1 50 11 -6 6 -17 12 -24
12 -8 0 -11 6 -8 15 5 11 10 13 19 5 6 -5 15 -7 18 -4 7 7 24 -32 31 -71 3
-14 12 -32 20 -41 9 -8 16 -20 16 -26 0 -6 2 -9 5 -7 2 3 -7 47 -21 98 -31
117 -69 176 -124 192 -22 7 -40 16 -40 21 0 4 -9 8 -20 8 -11 0 -20 -4 -20 -9
0 -5 -6 -11 -12 -14 -7 -2 -4 -3 7 -1 15 3 71 -10 93 -22 10 -5 -14 -34 -28
-34 -10 0 -26 -7 -34 -16 -18 -17 -36 -11 -36 13 0 9 -6 13 -15 9 -9 -3 -15 0
-15 9 0 18 -27 19 -63 3 -16 -8 -25 -19 -22 -27 3 -8 0 -11 -8 -8 -18 7 -47
-12 -29 -20 6 -2 12 -11 12 -18 0 -7 7 -15 15 -19 16 -6 21 -26 7 -26 -23 0
-54 43 -55 78 -1 22 -13 13 -28 -20 -22 -50 -40 -47 -23 3 17 47 12 74 -11 65
-11 -4 -15 2 -15 19 0 14 -5 25 -11 25 -5 0 -7 -4 -4 -10 3 -5 1 -10 -4 -10
-6 0 -11 6 -11 13 0 13 -39 67 -40 54 0 -4 9 -25 20 -47 21 -41 27 -110 10
-110 -5 0 -10 10 -10 23 0 13 -16 68 -35 122 -27 76 -32 102 -24 117 6 11 11
61 11 111 0 70 -4 105 -20 146 -29 75 -69 129 -115 154 -21 12 -53 30 -70 40
l-32 19 28 -6 c18 -4 26 -3 23 3 -4 5 -2 12 4 16 5 3 10 -3 10 -14 0 -11 5
-23 10 -26 15 -10 11 38 -5 59 -13 17 -15 18 -15 3 0 -24 -28 -21 -51 6 l-19
22 -6 -22z m109 -120 c-7 -2 -19 -2 -25 0 -7 3 -2 5 12 5 14 0 19 -2 13 -5z
m-422 -57 c-9 -11 -9 -15 1 -19 7 -3 3 -6 -9 -6 -16 -1 -20 3 -16 19 3 11 12
20 20 20 12 0 13 -3 4 -14z m-23 -58 c-7 -13 -11 -27 -10 -31 1 -5 -1 -6 -6
-3 -5 3 -15 -6 -22 -19 -13 -24 -40 -42 -40 -25 0 5 7 15 15 24 8 8 15 18 15
22 0 11 42 54 52 54 5 0 3 -10 -4 -22z m439 -40 c-3 -8 -6 -5 -6 6 -1 11 2 17
5 13 3 -3 4 -12 1 -19z m-30 -40 c-3 -8 -6 -5 -6 6 -1 11 2 17 5 13 3 -3 4
-12 1 -19z m124 -21 c-10 -9 -11 -8 -5 6 3 10 9 15 12 12 3 -3 0 -11 -7 -18z
m49 -43 c15 -37 11 -43 -6 -11 -10 18 -21 26 -30 23 -8 -3 -14 -1 -14 4 0 22
41 9 50 -16z m-40 -225 c0 -15 -7 -29 -16 -33 -12 -4 -14 -1 -9 13 3 11 -3 47
-15 80 -11 33 -20 66 -20 73 1 25 60 -107 60 -133z m-12 116 c-3 -3 -9 2 -12
12 -6 14 -5 15 5 6 7 -7 10 -15 7 -18z m-148 1 c0 -22 -19 -29 -36 -15 -14 12
-14 14 3 20 27 11 33 10 33 -5z m77 -37 c6 -6 10 -18 7 -25 -15 -49 -15 -49
-24 -34 -12 18 -13 70 -2 70 4 0 13 -5 19 -11z m588 -229 c-12 -5 -14 -9 -6
-9 8 -1 12 -4 9 -7 -4 -3 -18 1 -33 8 l-26 14 38 1 c29 0 33 -1 18 -7z m-179
-30 c9 0 13 -4 9 -9 -3 -6 4 -15 15 -21 21 -11 28 -52 9 -47 -17 3 -79 66 -79
78 0 6 7 8 16 5 9 -3 22 -6 30 -6z m234 0 c5 0 15 -10 21 -22 11 -22 11 -22
-7 -7 -10 9 -28 22 -39 28 -17 10 -17 12 -2 7 10 -3 23 -6 27 -6z m-70 -40
l25 -8 -25 -1 c-14 0 -32 4 -40 9 -13 9 -13 10 0 9 8 -1 26 -5 40 -9z m-50
-42 c0 -13 -23 -5 -28 10 -2 7 2 10 12 6 9 -3 16 -11 16 -16z m4 -37 c3 -5 0
-11 -8 -14 -8 -3 -17 1 -20 9 -6 15 19 20 28 5z m-311 -30 c14 -2 7 -22 -10
-28 -42 -16 -144 -90 -219 -158 -89 -81 -145 -155 -211 -280 -46 -87 -58 -96
-18 -13 14 28 25 62 25 75 0 13 12 35 27 49 16 15 29 38 30 57 l4 32 -36 -37
c-31 -33 -42 -65 -36 -101 1 -5 -3 -5 -9 -2 -7 4 -9 20 -5 38 7 31 6 31 -9 12
-15 -20 -15 -20 -16 4 0 14 13 36 35 55 32 29 74 116 57 116 -10 0 -63 -56
-85 -90 -10 -13 -17 -19 -17 -13 0 18 76 109 112 134 18 12 55 40 81 62 26 22
51 36 55 32 4 -3 -6 -16 -23 -28 -66 -48 -94 -80 -109 -122 -8 -25 -11 -45 -6
-45 6 0 32 22 59 49 47 46 91 79 91 66 0 -3 -25 -31 -55 -62 -54 -56 -64 -73
-46 -73 13 0 111 112 111 126 0 6 13 17 30 24 16 7 58 38 92 70 35 32 70 56
78 55 8 -2 18 -4 23 -4z m-283 -41 c-8 -6 -51 -33 -95 -60 -84 -51 -117 -82
-180 -165 -37 -48 -38 -49 -32 -18 4 21 2 33 -6 36 -8 3 -9 8 -2 18 6 8 12 28
13 44 4 41 30 60 109 80 37 9 95 29 128 45 60 28 93 38 65 20z m300 -149 c0
-5 -7 -12 -16 -15 -14 -5 -15 -4 -4 9 14 17 20 19 20 6z m255 -176 c-21 -8
-41 -12 -44 -10 -6 6 40 24 64 24 11 0 2 -6 -20 -14z m-55 -19 c0 -19 -213
-77 -227 -62 -5 4 45 20 157 49 66 17 70 18 70 13z m-555 -46 c-22 -24 -13
-26 21 -4 13 9 27 15 30 12 2 -3 -15 -17 -38 -33 -24 -15 -56 -41 -71 -59 -23
-26 -26 -27 -16 -7 19 40 81 122 87 116 3 -2 -3 -14 -13 -25z m146 -24 c-1 -3
-2 -6 -3 -5 -2 1 -20 -15 -41 -35 -45 -43 -127 -100 -133 -94 -2 3 19 19 47
36 33 21 48 36 43 44 -4 7 -4 10 0 7 3 -3 23 9 42 28 32 30 47 37 45 19z m205
-76 c15 -6 24 -13 20 -17 -3 -3 -16 -1 -29 5 -12 6 -35 13 -52 15 l-30 4 32 2
c17 0 44 -4 59 -9z m-386 -41 c-17 -17 -33 -29 -36 -26 -5 4 52 57 63 57 2 0
-10 -14 -27 -31z m169 -13 c-2 -2 -42 -11 -89 -21 -47 -9 -94 -19 -105 -22
-11 -3 -16 -2 -12 3 4 4 45 16 90 25 81 17 124 23 116 15z m-54 -66 l150 -7
-145 -1 c-148 -2 -194 3 -184 19 3 5 10 6 17 2 6 -4 79 -10 162 -13z m30 -41
c-133 -13 -135 -13 -103 -27 14 -6 29 -16 33 -22 6 -10 42 -27 70 -34 6 -2 30
-13 55 -24 55 -27 76 -27 132 -4 24 11 56 22 72 26 26 6 25 4 -17 -32 -34 -29
-42 -43 -34 -51 21 -21 -46 -12 -101 14 -56 26 -291 119 -329 130 -13 3 -23
10 -23 15 0 13 42 17 195 17 l140 0 -90 -8z m625 -261 c1 -31 -78 50 -107 107
-10 21 4 10 46 -35 33 -36 60 -68 61 -72z m-296 63 c7 -11 -63 8 -81 22 -7 5
-11 13 -8 17 5 9 80 -24 89 -39z m201 -97 c8 -18 15 -45 15 -60 0 -25 -2 -27
-15 -13 -14 14 -76 152 -75 168 1 12 59 -62 75 -95z m-375 72 c0 -3 -7 -12
-16 -20 -16 -17 -34 -21 -34 -8 0 6 9 12 48 31 1 0 2 -1 2 -3z m270 -183 c16
-24 36 -43 44 -43 17 0 41 -28 32 -37 -3 -4 -12 -1 -18 5 -18 18 -27 14 -21
-8 9 -34 -16 -22 -36 18 -22 42 -57 78 -118 122 -63 44 -52 52 21 16 46 -22
74 -44 96 -73z m-990 37 c-6 -11 -12 -20 -14 -20 -2 0 -2 9 1 20 3 11 9 20 15
20 5 0 4 -9 -2 -20z m1110 -39 c0 -6 -4 -13 -10 -16 -5 -3 -10 1 -10 9 0 9 5
16 10 16 6 0 10 -4 10 -9z m-210 -92 c0 -7 -8 -18 -17 -26 -10 -8 -12 -12 -5
-8 6 3 12 1 12 -4 0 -15 37 -14 43 2 3 9 8 9 21 -2 16 -13 15 -15 -15 -28 -39
-16 -34 -16 -54 4 -16 15 -17 15 -15 -3 6 -61 -34 -83 -77 -42 -30 28 -29 42
3 34 31 -8 50 6 69 51 13 32 35 45 35 22z m-186 -127 c3 -5 -1 -9 -9 -9 -8 0
-15 4 -15 9 0 4 4 8 9 8 6 0 12 -4 15 -8z m78 -6 c10 5 10 4 1 -6 -9 -10 -15
-10 -26 -2 -8 7 -18 8 -22 4 -5 -4 -5 -1 -1 6 6 10 11 10 21 2 8 -7 20 -8 27
-4z m-1022 -107 c-6 -11 -19 -23 -28 -27 -9 -3 -25 -15 -34 -27 -10 -11 -17
-16 -18 -11 0 7 80 86 88 86 1 0 -2 -9 -8 -21z m-80 -83 c0 -2 -8 -10 -17 -17
-16 -13 -17 -12 -4 4 13 16 21 21 21 13z m-178 -215 c-9 -16 -18 -28 -21 -26
-4 5 27 55 34 55 2 0 -4 -13 -13 -29z"/>
<path d="M1090 5990 c-12 -8 -10 -10 8 -10 13 0 20 4 17 10 -7 12 -6 12 -25 0z"/>
<path d="M1140 5472 c0 -5 11 -13 25 -16 14 -4 25 -13 25 -22 0 -11 6 -13 19
-9 11 3 22 1 26 -4 3 -7 0 -8 -9 -5 -21 8 -20 -10 1 -42 20 -31 31 -17 25 31
-3 23 -12 41 -26 50 -29 19 -86 31 -86 17z"/>
<path d="M2566 5349 c-8 -41 0 -49 15 -15 9 18 9 30 2 37 -7 7 -12 0 -17 -22z"/>
<path d="M1215 5124 c-18 -16 -23 -24 -12 -20 10 3 40 6 65 7 47 1 47 1 12 9
-19 5 -39 6 -44 3 -5 -4 -6 -1 -1 6 4 7 16 11 26 8 11 -3 19 -1 19 4 0 17 -35
8 -65 -17z"/>
<path d="M2325 4608 c4 -13 11 -27 16 -33 5 -5 4 5 -2 23 -12 36 -24 44 -14
10z"/>
<path d="M1361 4304 c-6 -23 -20 -49 -31 -59 -11 -10 -20 -25 -20 -34 0 -10 3
-12 8 -5 4 6 15 13 24 17 16 6 58 62 58 78 0 3 -6 14 -14 24 -13 18 -15 17
-25 -21z"/>
<path d="M810 4290 c0 -5 5 -10 10 -10 6 0 10 5 10 10 0 6 -4 10 -10 10 -5 0
-10 -4 -10 -10z"/>
<path d="M1450 4214 c-6 -14 -10 -29 -10 -34 0 -5 -11 -17 -24 -27 -18 -15
-23 -26 -19 -46 6 -30 -13 -61 -32 -53 -13 4 -35 -12 -35 -25 0 -16 143 56
186 94 69 61 57 112 -18 73 -29 -15 -32 -12 -29 27 3 25 -8 21 -19 -9z"/>
<path d="M2250 4174 c0 -37 37 -174 47 -174 11 0 -6 169 -19 189 -19 31 -28
26 -28 -15z"/>
<path d="M1050 4158 c0 -12 1 -19 3 -17 1 2 9 12 16 22 12 14 11 17 -3 17 -10
0 -16 -8 -16 -22z"/>
<path d="M1340 4171 c0 -6 5 -13 11 -17 8 -5 6 -10 -5 -16 -9 -5 -16 -14 -16
-20 0 -6 8 -4 18 5 10 10 22 14 25 10 4 -3 7 -3 7 0 0 4 -9 16 -20 27 -11 11
-20 16 -20 11z"/>
<path d="M2216 4151 c-4 -7 -5 -15 -2 -18 9 -9 19 4 14 18 -4 11 -6 11 -12 0z"/>
<path d="M2327 4123 c-11 -10 -8 -83 3 -83 6 0 10 20 10 45 0 46 -2 50 -13 38z"/>
<path d="M1294 4037 c-18 -12 -37 -29 -42 -38 -10 -16 -8 -16 28 -1 21 10 41
26 44 37 7 26 6 26 -30 2z"/>
<path d="M2281 3904 c0 -11 3 -14 6 -6 3 7 2 16 -1 19 -3 4 -6 -2 -5 -13z"/>
<path d="M913 3898 c-20 -26 -26 -41 -15 -34 12 7 36 46 29 46 -3 0 -9 -6 -14
-12z"/>
<path d="M2246 3824 c-9 -24 -7 -41 4 -24 8 12 10 12 16 -3 9 -24 24 -11 24
21 0 21 -2 24 -10 12 -6 -10 -10 -11 -10 -2 0 17 -17 15 -24 -4z"/>
<path d="M2376 3806 c3 -9 11 -16 17 -16 5 0 2 -9 -8 -20 -10 -11 -24 -20 -32
-20 -7 0 -13 -4 -13 -9 0 -5 9 -7 20 -4 21 6 28 -13 8 -20 -16 -5 15 1 60 13
56 14 55 18 -30 74 -24 15 -27 16 -22 2z"/>
<path d="M1200 3759 c-13 -9 -12 -10 3 -5 12 4 17 0 17 -14 0 -14 -7 -20 -24
-20 -21 0 -27 -10 -54 -92 -16 -51 -32 -119 -36 -150 -3 -32 -15 -72 -26 -90
-11 -18 -20 -48 -20 -67 0 -23 -9 -44 -30 -68 -33 -37 -37 -52 -18 -71 9 -9 9
-12 0 -12 -18 0 -43 -56 -45 -100 -1 -22 -4 -35 -8 -29 -11 18 -69 -154 -69
-205 0 -38 -22 -115 -47 -167 -12 -26 -28 -40 -58 -50 -39 -14 -41 -14 -40 3
1 10 24 37 51 59 27 23 51 45 53 51 4 13 -34 -7 -77 -39 -18 -14 -36 -23 -38
-20 -7 6 74 62 102 71 15 4 25 20 32 45 9 38 9 39 -21 45 -41 8 -77 -26 -112
-107 -14 -34 -30 -70 -36 -80 -5 -10 -7 -22 -4 -27 12 -20 -17 -9 -36 13 -10
12 -18 17 -19 10 0 -6 5 -15 10 -18 6 -4 8 -15 5 -26 -4 -11 -2 -19 5 -19 6 0
8 5 4 11 -4 7 -1 10 7 7 8 -3 13 -11 12 -17 -2 -6 1 -11 7 -11 5 0 7 -6 5 -12
-7 -20 -14 -67 -21 -133 -7 -71 11 -157 48 -229 l25 -50 8 50 c4 27 9 67 10
89 2 22 4 46 6 54 2 8 -4 17 -13 19 -16 3 -18 -5 -19 -55 0 -62 -17 -124 -18
-70 -1 16 -5 26 -11 22 -16 -10 0 114 21 162 10 25 28 48 43 54 14 7 28 23 31
39 l6 27 29 -27 c27 -26 28 -29 16 -63 -7 -20 -15 -40 -19 -43 -4 -4 -7 -24
-7 -45 0 -21 -4 -40 -9 -44 -10 -6 -8 -26 4 -57 4 -11 3 -18 -4 -18 -6 0 -8
-7 -4 -16 4 -10 -1 -17 -16 -21 -17 -4 -21 -13 -21 -45 0 -23 -4 -37 -10 -33
-5 3 -10 0 -11 -7 0 -7 -5 -4 -10 7 -7 14 -8 7 -4 -25 8 -66 46 -132 86 -152
36 -19 104 -24 113 -9 3 4 26 14 51 21 46 13 105 66 105 95 0 8 4 15 10 15 26
0 140 290 144 368 4 56 3 59 -18 55 -12 -3 -2 7 21 22 39 24 46 25 84 15 46
-13 68 -1 92 49 11 23 18 26 53 23 38 -3 42 -1 47 26 3 16 31 66 63 112 31 45
64 100 74 122 19 43 24 41 34 -9 4 -17 14 -37 22 -44 10 -8 14 -36 14 -108 0
-70 4 -103 15 -117 13 -18 14 -17 15 18 1 153 66 228 197 228 69 -1 109 -18
87 -38 -8 -7 -14 -8 -14 -2 0 19 -32 10 -51 -14 -11 -14 -27 -27 -37 -30 -20
-7 -56 -68 -58 -100 -1 -28 -13 -48 -23 -41 -5 2 -6 -6 -4 -18 3 -13 -2 -29
-11 -36 -13 -11 -16 -7 -22 23 -3 20 -10 36 -15 36 -5 0 -6 6 -3 14 3 7 -1 16
-10 19 -22 9 -27 -15 -37 -183 -5 -85 -12 -186 -15 -224 -4 -39 -1 -99 6 -140
11 -63 10 -77 -3 -103 -9 -16 -21 -52 -28 -79 -7 -27 -18 -54 -25 -61 -11 -11
-25 -76 -29 -133 -1 -14 -7 -67 -14 -119 -9 -70 -9 -120 0 -197 8 -75 8 -162
0 -321 l-11 -218 -32 -50 c-22 -35 -35 -73 -44 -125 -12 -74 -12 -74 7 -51 22
27 24 23 6 -11 -7 -14 -18 -23 -24 -21 -7 3 -17 -13 -24 -36 -10 -34 -9 -51 6
-108 9 -38 24 -79 33 -93 l15 -24 13 34 c15 42 17 73 5 66 -15 -10 -20 33 -5
45 11 9 14 8 14 -5 0 -9 11 -28 24 -41 15 -15 23 -33 21 -45 -3 -16 1 -20 21
-20 13 0 24 5 24 11 0 8 4 8 13 1 6 -5 33 -14 59 -20 40 -8 52 -6 78 10 18 10
41 16 53 13 12 -2 16 -2 10 1 -7 3 -13 9 -13 13 0 12 -94 108 -112 114 -10 4
-18 13 -18 21 0 7 -7 16 -15 20 -25 9 -18 29 9 22 30 -7 40 3 18 21 -15 12
-14 13 13 7 34 -7 72 -38 78 -63 2 -9 3 -2 0 14 -2 17 -8 32 -14 33 -5 2 -24
17 -42 34 l-32 29 28 -10 c39 -15 25 3 -18 23 -19 9 -35 23 -35 31 0 8 -8 15
-18 15 -10 0 -33 11 -51 24 -28 21 -37 23 -57 14 -31 -15 -31 -30 0 -18 24 9
36 5 36 -13 0 -6 -3 -7 -7 -4 -4 4 -20 -5 -35 -20 l-29 -28 3 50 c3 50 3 50
40 53 28 2 42 -2 55 -17 17 -21 40 -30 29 -12 -4 5 13 0 36 -11 24 -12 37 -23
31 -25 -18 -6 -16 -23 2 -23 8 0 15 6 15 13 0 6 12 -7 26 -30 14 -24 27 -43
28 -43 2 0 4 28 4 63 0 89 6 143 19 159 21 25 73 143 73 166 0 12 22 88 49
170 27 81 52 163 56 182 4 19 13 42 21 50 9 10 14 50 16 117 2 55 9 107 15
114 6 8 10 43 10 78 -2 64 -2 64 -37 76 -38 13 -49 35 -27 54 12 9 16 7 21
-13 3 -13 13 -26 21 -30 13 -5 15 15 14 154 0 87 1 162 4 167 3 4 10 58 16
118 14 129 36 234 62 291 27 57 22 127 -8 130 -20 2 -63 29 -63 40 0 6 -7 14
-15 18 -8 3 -15 12 -15 21 0 8 -4 15 -10 15 -5 0 -10 5 -10 10 0 18 42 10 87
-15 48 -29 73 -68 74 -117 0 -32 0 -33 11 -8 6 14 12 50 13 80 5 106 37 325
48 332 9 5 9 10 -1 20 -16 16 -15 41 4 86 10 20 18 60 19 88 1 43 -1 51 -14
46 -12 -5 -12 -2 2 13 11 11 17 27 14 41 -2 13 0 21 4 18 5 -3 9 14 10 38 1
24 2 69 4 101 2 34 -1 57 -7 57 -6 0 -4 7 3 16 11 14 11 18 -2 28 -9 6 -19 28
-23 49 -5 28 -14 40 -32 47 -37 14 -534 31 -816 28 -218 -2 -273 1 -257 16 9
9 443 10 714 3 223 -7 287 -6 279 3 -16 16 -1002 24 -1024 9z m1125 -429 c3
-6 -1 -7 -9 -4 -18 7 -21 14 -7 14 6 0 13 -4 16 -10z m-78 -66 c-3 -3 -12 -4
-19 -1 -8 3 -5 6 6 6 11 1 17 -2 13 -5z m-1177 -34 c-36 -11 -52 -11 -45 0 3
6 21 10 38 9 31 -1 31 -1 7 -9z m1213 3 c-7 -2 -19 -2 -25 0 -7 3 -2 5 12 5
14 0 19 -2 13 -5z m-50 -47 c35 -14 67 -41 67 -56 0 -15 -50 12 -81 42 -31 32
-30 33 14 14z m-1173 -14 c0 -5 -11 -14 -25 -20 -14 -6 -25 -8 -25 -4 0 6 9
12 48 31 1 0 2 -3 2 -7z m1211 -128 l24 -27 -25 13 c-14 8 -26 13 -27 12 -2
-1 -3 0 -3 3 0 3 0 10 0 15 0 15 4 13 31 -16z m-9 -41 c23 -20 23 -34 1 -26
-11 4 -14 3 -9 -6 13 -20 25 -72 16 -66 -4 3 -11 -1 -13 -7 -3 -7 -6 3 -7 22
-4 58 -7 77 -14 89 -11 16 5 13 26 -6z m-9 -153 c3 -11 1 -18 -4 -14 -5 3 -9
12 -9 20 0 20 7 17 13 -6z m-623 -3 c0 -2 -10 -12 -22 -23 l-23 -19 19 23 c18
21 26 27 26 19z m637 -59 c-3 -8 -6 -5 -6 6 -1 11 2 17 5 13 3 -3 4 -12 1 -19z
m-1438 -180 c-1 -7 -5 -24 -9 -38 l-8 -25 -1 28 c-1 32 -7 33 -36 10 -11 -10
-8 -6 7 10 30 29 49 35 47 15z m1229 -144 c15 9 32 -26 32 -66 0 -19 7 -43 15
-54 19 -25 19 -45 -1 -37 -12 4 -14 0 -8 -21 5 -19 2 -26 -9 -26 -11 0 -17 15
-22 50 -4 28 -13 54 -21 58 -17 9 -21 37 -10 69 4 12 2 24 -4 28 -5 3 -10 11
-10 18 0 6 6 3 13 -8 8 -10 19 -15 25 -11z m-182 -73 c-14 -28 -26 -61 -27
-73 0 -13 -5 -32 -10 -43 -7 -15 -8 -8 -6 26 4 48 56 173 64 152 2 -6 -7 -34
-21 -62z m-1179 -3 c-3 -7 -5 -2 -5 12 0 14 2 19 5 13 2 -7 2 -19 0 -25z
m1350 -195 c-3 -10 -5 -4 -5 12 0 17 2 24 5 18 2 -7 2 -21 0 -30z m5 -47 c4
-17 1 -23 -9 -19 -14 6 -18 43 -4 43 5 0 11 -11 13 -24z m68 -11 c0 -14 -4
-25 -10 -25 -5 0 -10 11 -10 25 0 14 5 25 10 25 6 0 10 -11 10 -25z m-10 -54
c0 -11 -4 -23 -10 -26 -6 -4 -10 5 -10 19 0 14 5 26 10 26 6 0 10 -9 10 -19z
m-1300 -42 c-7 -11 -14 -18 -17 -15 -3 3 0 12 7 21 18 21 23 19 10 -6z m1300
-84 c0 -36 -3 -46 -10 -35 -5 8 -10 38 -10 65 0 36 3 46 10 35 5 -8 10 -37 10
-65z m-270 -54 c0 -11 3 -12 8 -4 5 8 13 6 30 -7 22 -18 31 -37 12 -25 -5 3
-10 1 -10 -4 0 -6 -17 -11 -38 -11 l-38 0 1 43 c3 84 4 85 20 53 8 -15 15 -36
15 -45z m60 20 c0 -12 -20 -25 -27 -18 -7 7 6 27 18 27 5 0 9 -4 9 -9z m-126
-46 c4 -11 -1 -15 -19 -15 -24 0 -32 10 -18 23 11 12 31 8 37 -8z m-83 -745
c-6 -74 -9 -83 -10 -40 -1 59 11 175 16 150 2 -8 -1 -58 -6 -110z m-14 -202
c-3 -7 -5 -2 -5 12 0 14 2 19 5 13 2 -7 2 -19 0 -25z m-19 -248 c-7 -11 -17
-20 -22 -20 -5 0 -1 9 9 20 10 11 20 20 22 20 2 0 -2 -9 -9 -20z m108 -12 c17
-21 17 -21 1 -8 -16 12 -19 12 -17 -1 4 -25 0 -39 -10 -39 -11 0 -14 53 -3 63
9 9 7 10 29 -15z m-76 -22 c0 -2 -7 -7 -16 -10 -8 -3 -12 -2 -9 4 6 10 25 14
25 6z m-50 -27 c0 -5 -9 -9 -20 -9 -19 0 -26 11 -14 23 8 8 34 -3 34 -14z m60
-14 c0 -7 -7 -18 -16 -26 -8 -7 -13 -20 -11 -29 4 -16 -22 -40 -43 -40 -15 0
-12 29 5 47 23 23 9 29 -16 7 -16 -14 -21 -15 -17 -4 11 34 98 74 98 45z m-20
-110 c-7 -18 -6 -25 2 -25 9 0 9 -3 1 -11 -9 -9 -16 -8 -27 4 -19 19 -20 29
-4 45 22 22 38 15 28 -13z m95 14 c11 -16 2 -19 -39 -12 -26 4 -33 9 -24 14
18 12 56 11 63 -2z m-45 -38 c0 -5 13 -12 30 -16 16 -4 32 -11 35 -16 4 -5 21
-9 39 -9 18 0 36 -3 39 -6 10 -11 -39 -44 -66 -44 -27 0 -91 39 -90 55 1 6 -3
18 -8 28 -7 13 -6 17 6 17 8 0 15 -4 15 -9z"/>
<path d="M135 3244 c-30 -32 -55 -62 -55 -68 0 -5 27 19 60 54 33 35 58 66 55
68 -2 2 -29 -22 -60 -54z"/>
<path d="M860 2950 c-19 -11 -31 -19 -27 -20 11 0 67 29 67 35 0 7 -1 7 -40
-15z"/>
<path d="M753 2833 c-12 -24 -21 -43 -18 -43 7 0 47 70 43 78 -2 5 -13 -11
-25 -35z"/>
<path d="M695 2827 c-16 -12 -31 -21 -32 -19 -9 8 -34 -1 -59 -20 -15 -12 -35
-23 -43 -25 -9 -1 -23 -11 -33 -22 -9 -12 -21 -21 -26 -21 -14 0 -21 -22 -28
-86 -6 -51 -5 -55 26 -84 32 -30 82 -41 95 -20 4 6 15 8 26 5 27 -9 24 4 -3
15 -23 9 -23 9 2 10 21 0 22 2 8 10 -21 13 -48 66 -48 94 1 20 1 20 14 3 11
-14 15 -15 19 -5 4 11 6 11 6 0 1 -21 21 -3 21 19 0 16 -5 19 -22 15 -13 -3
-17 -3 -10 0 6 3 12 16 12 29 0 13 4 27 10 30 6 3 7 -1 4 -12 -3 -10 10 0 30
22 19 22 33 41 31 44 -2 2 6 12 18 22 31 26 18 23 -18 -4z m-55 -41 c0 -3 -4
-8 -10 -11 -5 -3 -10 -1 -10 4 0 6 5 11 10 11 6 0 10 -2 10 -4z m-55 -225 c-3
-6 -11 -11 -16 -11 -5 0 -4 6 3 14 14 16 24 13 13 -3z"/>
<path d="M705 2749 c-9 -17 -15 -34 -13 -39 2 -5 11 9 20 30 20 47 15 53 -7 9z"/>
<path d="M2155 2720 c3 -5 8 -10 11 -10 2 0 4 5 4 10 0 6 -5 10 -11 10 -5 0
-7 -4 -4 -10z"/>
<path d="M1290 2499 c-7 -11 -10 -23 -7 -25 2 -2 9 7 15 21 14 30 7 33 -8 4z"/>
<path d="M645 1021 c-131 -35 -241 -138 -285 -267 -25 -70 -28 -218 -7 -286
48 -154 177 -264 340 -290 271 -42 497 150 497 423 0 182 -93 328 -257 401
-37 17 -71 22 -153 24 -58 2 -118 0 -135 -5z m145 -36 c19 -14 40 -25 47 -25
15 0 18 -27 3 -32 -5 -1 11 -3 38 -4 36 -1 58 -8 95 -33 63 -43 70 -34 11 13
-26 20 -42 36 -35 36 7 0 38 -25 69 -56 32 -31 51 -53 43 -48 -11 6 -13 3 -6
-12 5 -10 11 -43 13 -73 3 -45 1 -53 -11 -48 -8 3 -23 0 -33 -7 -11 -7 -33
-16 -50 -19 -27 -5 -34 -1 -60 34 -16 21 -46 47 -67 56 l-39 18 6 67 5 68 -37
9 c-108 29 -117 29 -145 6 -14 -13 -23 -26 -19 -31 4 -4 2 -4 -5 0 -8 4 -22
-8 -38 -34 -14 -22 -32 -40 -39 -40 -8 0 -23 -3 -33 -7 -17 -6 -17 -5 1 15 10
12 23 19 28 16 4 -3 15 11 23 30 9 20 21 36 29 36 7 0 19 7 26 15 16 19 7 19
-33 -2 -60 -30 -85 -54 -80 -74 4 -13 0 -19 -10 -19 -9 0 -19 -9 -22 -20 -3
-11 -11 -20 -16 -20 -5 0 -9 -7 -9 -15 0 -19 -4 -19 54 10 56 28 59 27 117
-46 26 -33 27 -38 13 -55 -15 -18 -15 -18 -11 2 3 14 -5 30 -24 49 -29 26 -29
26 -27 4 3 -20 -2 -23 -41 -27 l-44 -4 16 26 c21 31 21 36 2 36 -9 0 -27 -11
-41 -26 -22 -21 -25 -31 -20 -62 5 -25 4 -32 -3 -23 -7 11 -12 3 -20 -30 l-10
-44 5 48 c3 27 12 66 19 87 10 28 11 40 2 43 -7 2 -3 14 11 34 12 17 18 34 14
38 -4 5 -2 5 4 2 7 -4 18 1 25 10 10 12 10 14 2 9 -7 -4 -13 -3 -13 3 0 11 80
71 129 96 28 14 35 14 42 3 7 -10 9 -9 9 4 0 12 11 19 38 23 20 4 42 8 47 10
18 6 21 5 55 -20z m145 -25 c3 -6 -1 -7 -9 -4 -18 7 -21 14 -7 14 6 0 13 -4
16 -10z m-25 -19 c0 -5 -9 -7 -20 -4 -11 3 -20 7 -20 9 0 2 9 4 20 4 11 0 20
-4 20 -9z m183 -204 c-3 -6 -2 -7 4 -4 6 4 15 -5 22 -19 14 -31 14 -57 1 -49
-5 3 -10 2 -10 -4 0 -5 5 -11 11 -13 13 -4 22 -98 10 -98 -18 0 -56 145 -52
200 3 49 4 52 12 26 4 -16 5 -34 2 -39z m-232 -9 c29 -24 54 -48 56 -55 5 -13
-114 43 -135 64 -22 22 -22 15 0 -23 l21 -36 -24 -20 c-13 -11 -19 -18 -14
-15 6 3 17 -2 25 -11 13 -14 12 -15 -5 -8 -11 5 -25 9 -32 9 -7 0 -9 5 -6 11
4 6 -1 5 -10 -2 -18 -15 -42 -5 -42 18 0 10 -9 15 -27 14 -28 0 -34 10 -20 33
9 15 119 62 144 63 10 0 41 -19 69 -42z m-46 -28 c3 -5 1 -10 -4 -10 -6 0 -11
5 -11 10 0 6 2 10 4 10 3 0 8 -4 11 -10z m-438 -62 c-3 -8 -6 -5 -6 6 -1 11 2
17 5 13 3 -3 4 -12 1 -19z m547 -35 c-10 -74 -20 -94 -41 -86 -17 7 -17 8 0
11 9 2 17 8 17 14 0 5 -8 7 -17 4 -15 -5 -14 -3 2 9 21 17 22 18 24 65 0 17 6
30 12 30 7 0 8 -16 3 -47z m-209 17 c3 -5 1 -10 -4 -10 -6 0 -11 5 -11 10 0 6
2 10 4 10 3 0 8 -4 11 -10z m-320 -50 c-3 -5 -11 -10 -16 -10 -6 0 -7 5 -4 10
3 6 11 10 16 10 6 0 7 -4 4 -10z m755 -34 c0 -7 -124 -125 -128 -121 -2 1 7
14 20 27 13 13 38 41 56 61 28 32 52 47 52 33z m-175 -109 c13 -13 -12 0 -47
25 -28 19 -28 19 -104 -7 -42 -14 -78 -25 -80 -22 -2 2 31 17 74 34 l77 30 35
-25 c19 -14 40 -30 45 -35z"/>
<path d="M710 980 c14 -4 36 -8 50 -8 23 -1 23 0 5 8 -11 5 -33 8 -50 8 -29 0
-29 0 -5 -8z"/>
<path d="M540 790 c0 -5 5 -10 11 -10 5 0 7 5 4 10 -3 6 -8 10 -11 10 -2 0 -4
-4 -4 -10z"/>
<path d="M1008 794 c-4 -3 -3 -15 3 -25 7 -15 6 -19 -6 -19 -8 0 -15 4 -15 10
0 5 -7 7 -15 3 -28 -10 -10 -27 33 -31 32 -3 42 0 42 11 0 20 -33 60 -42 51z"/>
<path d="M703 723 c-13 -2 -23 -8 -23 -13 0 -5 15 -4 33 2 52 18 47 22 -10 11z"/>
<path d="M1810 570 c0 -12 41 -50 54 -50 5 0 -3 14 -19 30 -31 33 -35 35 -35
20z"/>
<path d="M1612 365 c-7 -14 -12 -32 -12 -40 0 -20 24 -19 41 1 10 13 10 17 -2
26 -11 7 -11 11 -1 15 6 2 10 9 6 14 -9 16 -20 10 -32 -16z"/>
<path d="M1640 310 c0 -5 9 -10 21 -10 11 0 17 5 14 10 -3 6 -13 10 -21 10 -8
0 -14 -4 -14 -10z"/>
<path d="M1605 268 c9 -56 32 -106 57 -119 24 -13 158 -6 221 12 51 14 117 74
117 106 0 22 -1 23 -16 9 -8 -9 -12 -21 -9 -27 4 -6 1 -9 -8 -7 -9 2 -15 -1
-14 -6 3 -13 -56 -28 -63 -16 -8 13 -89 46 -132 54 -53 10 -113 -26 -102 -61
8 -28 -28 24 -44 61 l-12 31 5 -37z"/>
</g>
</svg>
