<?xml version="1.0" standalone="no"?>
<!DOCTYPE svg PUBLIC "-//W3C//DTD SVG 20010904//EN"
 "http://www.w3.org/TR/2001/REC-SVG-20010904/DTD/svg10.dtd">
<svg version="1.0" xmlns="http://www.w3.org/2000/svg"
 width="450.000000pt" height="450.000000pt" viewBox="0 0 450.000000 450.000000"
 preserveAspectRatio="xMidYMid meet">

<g transform="translate(0.000000,450.000000) scale(0.100000,-0.100000)"
fill="#000000" stroke="none">
<path d="M2720 3792 c118 -80 202 -151 276 -232 55 -61 98 -119 93 -125 -2 -2
-26 -1 -52 2 -39 5 -53 12 -73 38 -49 65 -180 162 -327 244 l-57 33 51 -53
c57 -59 89 -105 89 -131 0 -11 -17 -22 -52 -34 -42 -14 -104 -19 -296 -23
l-244 -6 -27 -31 c-25 -28 -35 -32 -101 -36 -63 -5 -76 -9 -102 -36 -40 -39
-44 -85 -20 -234 l18 -117 -58 -22 c-32 -12 -77 -35 -100 -51 -31 -23 -42 -27
-49 -17 -11 18 -6 23 59 59 126 71 129 102 26 276 l-18 32 39 48 c70 87 247
253 367 347 65 50 116 92 114 94 -2 3 -52 -7 -112 -21 -228 -55 -480 -182
-689 -346 -33 -26 -75 -52 -94 -58 -48 -17 -101 -60 -101 -82 0 -10 -7 -23
-15 -27 -8 -5 -26 -30 -40 -57 -14 -27 -41 -67 -59 -90 -95 -116 -168 -341
-205 -634 -21 -161 -28 -303 -12 -237 10 41 57 162 81 205 l18 35 7 -30 c18
-88 72 -232 110 -297 53 -90 133 -179 214 -238 43 -32 59 -49 55 -60 -27 -62
-26 -84 5 -170 40 -110 64 -140 117 -147 55 -7 97 16 117 64 15 38 15 38 233
120 121 45 273 103 339 129 184 70 171 69 196 24 34 -60 98 -85 218 -85 80 0
104 4 143 23 59 29 88 74 88 135 0 36 4 47 20 52 32 10 161 98 231 158 47 40
90 65 150 88 46 18 98 42 116 53 66 43 90 129 57 199 -16 33 -16 37 16 118 52
135 70 268 75 549 5 232 4 242 -10 180 -19 -84 -55 -199 -65 -205 -5 -3 -20
25 -34 62 -92 239 -271 429 -509 538 -74 34 -212 78 -282 91 -37 6 -32 1 65
-64z m-755 -851 c-11 -10 -69 -60 -130 -110 -99 -83 -111 -90 -122 -74 -18 24
-7 53 36 93 52 48 160 99 231 109 2 1 -4 -8 -15 -18z m235 -1 c20 -5 58 -24
85 -41 l50 -32 -82 -18 c-154 -33 -261 -101 -338 -214 l-39 -56 -54 55 c-67
67 -66 80 17 164 67 68 127 107 209 133 66 21 102 23 152 9z m802 -131 c22
-56 23 -188 3 -256 -15 -50 -16 -50 -96 -87 -45 -20 -83 -35 -84 -34 -2 2 -10
44 -19 93 -9 50 -21 105 -27 122 -12 39 -52 73 -85 73 -13 0 -24 3 -24 8 0 4
39 29 86 56 76 44 184 79 219 71 6 -1 18 -22 27 -46z m-582 -34 c24 -24 42
-47 39 -49 -2 -3 -71 -25 -153 -51 -161 -50 -177 -58 -223 -110 -35 -39 -70
-45 -128 -21 -41 17 -43 32 -13 72 99 132 226 202 368 203 65 1 66 0 110 -44z
m-662 -132 c43 -53 126 -109 200 -134 31 -11 65 -26 75 -34 21 -15 38 -75 30
-107 -6 -19 -11 -20 -63 -15 -145 16 -282 101 -362 226 -36 57 -35 76 3 135
l30 49 26 -39 c15 -22 42 -58 61 -81z m716 14 c22 -16 35 -75 36 -159 0 -65
-18 -158 -30 -158 -8 0 -59 312 -53 323 6 11 27 9 47 -6z m-114 -7 c32 -17 71
-154 71 -251 0 -98 -28 -203 -63 -237 -19 -17 -127 -72 -144 -72 -2 0 2 12 9
28 26 49 47 157 47 233 0 56 -8 94 -31 159 -16 47 -31 91 -32 99 -1 10 17 21
53 32 68 21 67 21 90 9z m-147 -127 c29 -62 32 -77 32 -163 0 -91 -23 -199
-57 -267 -15 -30 -67 -53 -118 -53 -35 0 -40 3 -36 18 61 196 68 228 62 302
-3 41 -8 92 -12 113 -6 34 -3 41 34 77 22 22 45 40 51 40 7 0 26 -30 44 -67z
m-393 -149 c70 -34 148 -54 210 -54 46 0 46 0 24 -99 l-16 -71 -42 6 c-81 12
-162 36 -218 66 -62 33 -156 122 -175 165 -12 27 -18 155 -8 164 2 3 39 -29
82 -70 52 -50 100 -87 143 -107z m-382 30 c36 -31 62 -65 78 -102 13 -30 22
-57 19 -60 -3 -3 -27 14 -55 37 -27 23 -50 40 -50 37 0 -3 11 -31 25 -62 36
-82 103 -171 189 -251 l75 -70 -49 -23 -50 -23 -60 64 c-130 137 -200 276
-200 392 0 65 8 107 19 107 3 0 30 -21 59 -46z m408 -240 c82 -31 151 -58 153
-60 9 -9 -20 -54 -34 -54 -33 0 -132 42 -183 77 -44 30 -104 93 -89 93 2 0 71
-25 153 -56z m755 -169 c62 -11 143 3 185 31 45 31 55 25 15 -9 -63 -52 -215
-57 -280 -9 -40 29 -36 45 3 18 20 -13 55 -27 77 -31z m-572 -66 c6 -18 11
-33 11 -34 0 -2 -12 -6 -27 -9 -29 -8 -43 5 -43 41 0 19 10 26 42 32 3 0 11
-13 17 -30z m-80 -37 c12 -40 -15 -54 -41 -22 -23 29 -23 35 5 47 27 13 25 13
36 -25z m-77 -19 c24 -21 23 -43 -2 -43 -11 0 -20 3 -20 8 0 4 -3 17 -6 30 -7
26 2 28 28 5z m-54 -36 c4 -35 -22 -46 -48 -22 -25 23 -25 30 3 43 31 15 41
10 45 -21z m-80 -37 c10 -17 9 -20 -12 -26 -31 -7 -46 1 -46 26 0 34 37 34 58
0z m-83 -21 c4 -12 2 -26 -5 -33 -17 -16 -44 22 -29 41 16 19 27 16 34 -8z"/>
<path d="M1295 1440 c-38 -15 -67 -57 -72 -102 -6 -64 20 -99 104 -138 106
-50 122 -71 83 -110 -14 -14 -33 -20 -66 -20 -59 0 -81 13 -89 51 -7 30 -8 31
-48 25 -23 -4 -42 -8 -44 -10 -9 -8 23 -82 43 -101 50 -47 156 -57 224 -22 59
30 85 67 85 122 0 56 -18 75 -122 129 -59 31 -79 47 -81 64 -5 35 15 52 64 52
43 0 84 -25 84 -50 0 -5 20 -10 44 -10 l45 0 -9 31 c-11 38 -35 66 -72 85 -29
15 -140 18 -173 4z"/>
<path d="M1665 1440 c-3 -5 -21 -83 -40 -172 -18 -90 -38 -183 -44 -208 -6
-25 -11 -48 -11 -52 0 -14 88 -9 93 5 2 6 10 44 17 83 l13 72 93 4 c74 3 99 8
121 24 46 35 66 70 71 126 5 65 -19 102 -76 118 -47 13 -229 13 -237 0z m218
-91 c15 -23 0 -66 -28 -85 -34 -22 -141 -26 -137 -4 2 8 6 36 9 63 l6 48 70
-3 c51 -2 73 -7 80 -19z"/>
<path d="M2165 1431 c-86 -40 -145 -143 -145 -254 0 -66 33 -135 77 -160 78
-45 199 -27 267 39 56 54 79 108 83 194 4 70 2 78 -25 121 -17 26 -44 53 -65
62 -47 23 -141 22 -192 -2z m134 -62 c63 -22 80 -114 36 -206 -43 -93 -136
-123 -196 -64 -25 25 -29 37 -29 84 0 72 40 152 90 178 40 22 55 23 99 8z"/>
<path d="M2571 1428 c-7 -19 -91 -409 -91 -423 0 -3 20 -5 44 -5 l44 0 17 78
c23 109 19 104 66 100 49 -4 67 -23 104 -113 l24 -60 51 -3 50 -3 -25 58 c-14
32 -37 75 -50 95 l-24 36 42 14 c55 17 87 64 87 129 0 93 -49 118 -228 119
-97 0 -103 -1 -111 -22z m242 -79 c18 -28 -1 -69 -38 -85 -32 -13 -136 -20
-147 -9 -2 3 0 30 5 60 l10 56 80 -3 c60 -2 82 -7 90 -19z"/>
<path d="M2976 1419 c-3 -17 -6 -35 -6 -40 0 -5 29 -9 64 -9 l64 0 -13 -67
c-11 -58 -41 -197 -60 -280 -5 -21 -2 -23 39 -23 53 0 45 -18 89 200 l34 165
66 3 c57 3 66 5 71 25 16 59 21 57 -168 57 l-173 0 -7 -31z"/>
<path d="M1823 880 c-25 -10 -38 -48 -28 -79 4 -12 29 -33 58 -48 70 -34 79
-49 51 -77 -32 -33 -114 -11 -114 30 0 8 -7 14 -15 14 -21 0 -19 -43 4 -64 41
-37 138 -28 161 15 24 44 1 78 -73 112 -42 19 -55 40 -37 62 19 23 87 20 100
-5 14 -27 40 -27 33 0 -11 43 -82 63 -140 40z"/>
<path d="M2037 883 c-6 -10 -47 -207 -47 -227 0 -9 6 -16 14 -16 10 0 17 15
21 43 10 64 15 68 84 70 l62 2 -6 -35 c-4 -19 -9 -45 -12 -57 -4 -17 -1 -23
11 -23 8 0 18 10 21 23 20 89 45 209 45 217 0 5 -6 10 -14 10 -10 0 -19 -19
-26 -55 l-11 -55 -66 0 -65 0 7 43 c4 23 8 46 9 51 1 11 -21 19 -27 9z"/>
<path d="M2330 877 c-41 -21 -70 -74 -70 -129 0 -60 11 -83 50 -103 98 -51
210 56 179 170 -18 65 -94 95 -159 62z m110 -37 c14 -14 20 -33 20 -65 0 -90
-96 -150 -150 -93 -37 40 -22 124 28 166 24 19 79 15 102 -8z"/>
<path d="M2567 883 c-4 -7 -45 -199 -50 -238 -1 -5 5 -10 13 -10 10 0 18 17
25 50 l11 50 68 5 c56 4 71 9 87 29 27 33 25 86 -3 105 -23 17 -143 23 -151 9z
m141 -54 c2 -15 -5 -32 -17 -43 -22 -20 -105 -34 -113 -20 -3 5 -1 28 4 52 l9
43 57 -3 c53 -3 57 -5 60 -29z"/>
</g>
</svg>
